<svg xmlns="http://www.w3.org/2000/svg" xmlns:xlink="http://www.w3.org/1999/xlink" width="1366" zoomAndPan="magnify" viewBox="0 0 1024.5 576" height="768" preserveAspectRatio="xMidYMid meet" version="1.0"><defs><clipPath id="805b86a157"><path d="M 293.113281 176.089844 L 757 176.089844 L 757 359 L 293.113281 359 Z M 293.113281 176.089844 " clip-rule="nonzero"/></clipPath><clipPath id="f19062dae6"><path d="M 214.023438 130 L 280.742188 130 L 280.742188 287.976562 L 214.023438 287.976562 Z M 214.023438 130 " clip-rule="nonzero"/></clipPath><clipPath id="fca72511aa"><path d="M 756.773438 124.273438 L 855.722656 124.273438 L 855.722656 410 L 756.773438 410 Z M 756.773438 124.273438 " clip-rule="nonzero"/></clipPath><clipPath id="ff6c62e807"><path d="M 98.191406 124.273438 L 197 124.273438 L 197 410 L 98.191406 410 Z M 98.191406 124.273438 " clip-rule="nonzero"/></clipPath></defs><g clip-path="url(#805b86a157)"><path fill="#011627" d="M 747.988281 213.777344 L 729.648438 213.777344 C 728.894531 213.777344 728.171875 213.867188 727.476562 214.039062 C 710.847656 191.039062 683.789062 176.089844 653.257812 176.089844 C 617.101562 176.089844 585.84375 197.0625 570.984375 227.480469 C 570.203125 226.554688 569.363281 225.597656 568.492188 224.640625 C 559.539062 214.648438 555.253906 212.15625 552.820312 211.140625 C 539.523438 205.636719 510.351562 205.636719 497.054688 211.140625 C 494.621094 212.15625 490.363281 214.648438 481.382812 224.640625 C 480.511719 225.628906 479.671875 226.582031 478.890625 227.480469 C 464 197.09375 432.742188 176.117188 396.585938 176.117188 C 366.054688 176.117188 338.996094 191.066406 322.367188 214.070312 C 321.671875 213.894531 320.949219 213.808594 320.195312 213.808594 L 301.859375 213.808594 C 297.046875 213.808594 293.167969 217.691406 293.167969 222.5 C 293.167969 227.308594 297.046875 231.1875 301.859375 231.1875 L 312.605469 231.1875 C 307.738281 242.371094 305.042969 254.710938 305.042969 267.691406 C 305.042969 318.242188 346.035156 359.234375 396.585938 359.234375 C 447.140625 359.234375 488.132812 318.242188 488.132812 267.691406 C 488.132812 257.929688 486.597656 248.542969 483.785156 239.707031 C 490.1875 231.769531 498.269531 223.222656 501.484375 221.890625 C 512.003906 217.542969 537.871094 217.542969 548.386719 221.890625 C 551.601562 223.222656 559.6875 231.769531 566.089844 239.707031 C 563.25 248.511719 561.742188 257.929688 561.742188 267.691406 C 561.742188 318.242188 602.734375 359.234375 653.285156 359.234375 C 703.835938 359.234375 744.828125 318.242188 744.828125 267.691406 C 744.828125 254.710938 742.136719 242.371094 737.269531 231.1875 L 748.015625 231.1875 C 752.824219 231.1875 756.707031 227.308594 756.707031 222.5 C 756.707031 217.691406 752.796875 213.777344 747.988281 213.777344 Z M 470.257812 298.773438 C 466.230469 308.304688 460.464844 316.851562 453.105469 324.179688 C 445.75 331.539062 437.203125 337.304688 427.699219 341.332031 C 417.851562 345.503906 407.394531 347.617188 396.585938 347.617188 C 385.78125 347.617188 375.324219 345.503906 365.472656 341.332031 C 355.945312 337.304688 347.398438 331.539062 340.066406 324.179688 C 332.710938 316.824219 326.945312 308.277344 322.917969 298.773438 C 318.746094 288.925781 316.632812 278.46875 316.632812 267.660156 C 316.632812 256.855469 318.746094 246.398438 322.917969 236.546875 C 326.945312 227.019531 332.710938 218.472656 340.066406 211.140625 C 347.425781 203.785156 355.972656 198.019531 365.472656 193.992188 C 375.324219 189.820312 385.78125 187.707031 396.585938 187.707031 C 407.394531 187.707031 417.851562 189.820312 427.699219 193.992188 C 437.230469 198.019531 445.777344 203.785156 453.105469 211.140625 C 460.464844 218.5 466.230469 227.046875 470.257812 236.546875 C 474.429688 246.398438 476.542969 256.855469 476.542969 267.660156 C 476.542969 278.46875 474.429688 288.925781 470.257812 298.773438 Z M 726.925781 298.773438 C 722.898438 308.304688 717.136719 316.851562 709.777344 324.179688 C 702.417969 331.539062 693.871094 337.304688 684.371094 341.332031 C 674.519531 345.503906 664.0625 347.617188 653.257812 347.617188 C 642.453125 347.617188 631.992188 345.503906 622.144531 341.332031 C 612.613281 337.304688 604.066406 331.539062 596.738281 324.179688 C 589.378906 316.824219 583.613281 308.277344 579.585938 298.773438 C 575.417969 288.925781 573.300781 278.46875 573.300781 267.660156 C 573.300781 256.855469 575.417969 246.398438 579.585938 236.546875 C 583.613281 227.019531 589.378906 218.472656 596.738281 211.140625 C 604.097656 203.785156 612.640625 198.019531 622.144531 193.992188 C 631.992188 189.820312 642.453125 187.707031 653.257812 187.707031 C 664.0625 187.707031 674.519531 189.820312 684.371094 193.992188 C 693.902344 198.019531 702.449219 203.785156 709.777344 211.140625 C 717.136719 218.5 722.898438 227.046875 726.925781 236.546875 C 731.097656 246.398438 733.210938 256.855469 733.210938 267.660156 C 733.210938 278.46875 731.097656 288.925781 726.925781 298.773438 Z M 726.925781 298.773438 " fill-opacity="1" fill-rule="nonzero"/></g><g clip-path="url(#f19062dae6)"><path fill="#011627" d="M 281.058594 191.382812 L 249.65625 191.382812 L 279.851562 130.390625 L 245.425781 130.390625 L 214.023438 209.5 L 243.011719 209.5 L 221.269531 287.40625 Z M 281.058594 191.382812 " fill-opacity="1" fill-rule="nonzero"/></g><g clip-path="url(#fca72511aa)"><path fill="#011627" d="M 775.183594 133.730469 L 770.980469 126.011719 L 771.089844 126.078125 C 787.589844 136.75 808.542969 149.835938 815.339844 166.96875 C 820.410156 179.742188 817.285156 193.558594 815.265625 203.351562 L 815.265625 203.355469 C 814.363281 207.75 813.597656 211.5 813.234375 214.976562 C 812.050781 226.363281 815.242188 235.0625 821.125 241.3125 C 827.519531 248.105469 837.554688 252.761719 849.941406 258.324219 C 853.324219 259.839844 855.460938 263.238281 855.367188 266.945312 C 855.277344 270.648438 852.96875 273.933594 849.515625 275.28125 C 834.027344 281.316406 823.25 285.96875 818.523438 294.289062 C 813.59375 302.960938 814.074219 317.753906 816.023438 331.152344 C 816.277344 332.898438 816.546875 334.566406 816.816406 336.242188 C 817.0625 337.761719 817.3125 339.308594 817.53125 340.816406 C 818.832031 349.742188 819.328125 358.976562 813 369.449219 C 805.582031 381.714844 788.484375 395.511719 773.667969 407.621094 C 769.734375 410.835938 763.941406 410.253906 760.726562 406.320312 C 757.511719 402.386719 758.09375 396.59375 762.027344 393.378906 C 778.105469 380.238281 791.90625 368.785156 797.257812 359.929688 C 800.292969 354.917969 800.410156 350.890625 799.332031 343.464844 C 799.136719 342.125 798.910156 340.722656 798.660156 339.175781 C 798.390625 337.515625 798.101562 335.710938 797.824219 333.796875 C 795.941406 320.871094 794.117188 300.007812 802.53125 285.203125 C 811.140625 270.050781 829.339844 263.402344 842.835938 258.144531 L 842.410156 275.101562 C 830.949219 269.957031 817.136719 263.910156 807.734375 253.921875 C 797.820312 243.390625 793.261719 229.234375 794.941406 213.074219 C 795.414062 208.519531 796.386719 203.839844 797.253906 199.640625 C 799.539062 188.546875 800.917969 180.492188 798.246094 173.753906 C 794.132812 163.394531 779.867188 153.660156 761.101562 141.523438 L 760.992188 141.453125 C 758.375 139.757812 756.789062 136.851562 756.789062 133.730469 C 756.789062 128.652344 760.910156 124.535156 765.988281 124.535156 C 771.066406 124.535156 775.183594 128.652344 775.183594 133.730469 Z M 775.183594 133.730469 " fill-opacity="1" fill-rule="nonzero"/></g><g clip-path="url(#ff6c62e807)"><path fill="#011627" d="M 196.726562 133.878906 L 196.726562 133.882812 C 196.726562 136.996094 195.144531 139.902344 192.527344 141.59375 C 173.742188 153.746094 159.4375 163.484375 155.320312 173.855469 C 152.648438 180.585938 154.027344 188.632812 156.3125 199.714844 C 157.175781 203.90625 158.148438 208.582031 158.621094 213.128906 C 160.296875 229.269531 155.742188 243.410156 145.84375 253.925781 C 136.449219 263.90625 122.652344 269.945312 111.210938 275.085938 L 110.78125 258.148438 C 124.261719 263.398438 142.441406 270.039062 151.039062 285.175781 C 159.441406 299.960938 157.621094 320.796875 155.742188 333.710938 C 155.464844 335.617188 155.171875 337.425781 154.90625 339.082031 C 154.65625 340.621094 154.429688 342.03125 154.234375 343.367188 C 153.15625 350.78125 153.277344 354.804688 156.304688 359.8125 C 161.652344 368.65625 175.433594 380.09375 191.496094 393.222656 C 195.421875 396.433594 196.003906 402.21875 192.792969 406.148438 C 189.582031 410.074219 183.796875 410.65625 179.867188 407.445312 C 165.070312 395.347656 147.992188 381.570312 140.585938 369.316406 C 134.261719 358.859375 134.757812 349.636719 136.054688 340.722656 C 136.273438 339.214844 136.523438 337.667969 136.769531 336.152344 C 137.039062 334.484375 137.308594 332.804688 137.5625 331.066406 C 139.507812 317.6875 139.988281 302.910156 135.066406 294.25 C 130.34375 285.9375 119.578125 281.292969 104.109375 275.261719 C 100.664062 273.917969 98.359375 270.636719 98.265625 266.9375 C 98.171875 263.234375 100.308594 259.839844 103.683594 258.324219 C 116.058594 252.769531 126.082031 248.121094 132.46875 241.335938 C 138.34375 235.089844 141.53125 226.402344 140.347656 215.03125 C 139.988281 211.558594 139.222656 207.8125 138.320312 203.421875 C 136.304688 193.640625 133.179688 179.839844 138.246094 167.078125 C 145.046875 149.9375 166.042969 136.847656 182.550781 126.167969 L 178.355469 133.882812 L 178.355469 133.878906 C 178.355469 128.808594 182.46875 124.695312 187.539062 124.695312 C 192.613281 124.695312 196.726562 128.808594 196.726562 133.878906 Z M 196.726562 133.878906 " fill-opacity="1" fill-rule="nonzero"/></g></svg>